<svg width="32" height="32" xmlns="http://www.w3.org/2000/svg" shape-rendering="crispEdges">
  <path fill-opacity=".024" d="M1 0h1v1H1Zm27 0h1v1h-1Zm-28 1h1v1h-1Zm29 0h1v1h-1Zm2 19h1v1h-1Zm-31 8h1v1h-1Zm1 1h1v1h-1Zm9 0h1v1h-1Zm1 2h1v1h-1Zm20 0h1v1h-1Z"/>
  <path fill="#1581B7" d="M2 0h1v1H2Zm25 0h1v1h-1Zm-26 1h1v1h-1Zm27 0h1v1h-1Z"/>
  <path fill="#127FB6" d="M3 0h1v1H3Zm23 0h1v1h-1Zm-25 4h1v1h-1Zm27 0h1v1h-1Z"/>
  <path fill="#127FB5" d="M4 0h1v1H4Zm21 0h1v1h-1Zm-24 2h1v2h-1Zm27 0h1v2h-1Z"/>
  <path fill="#0F7EB5" d="M5 0h1v1H5Zm19 0h1v1h-1Z"/>
  <path fill="#0B7CB5" d="M6 0h1v1H6Z"/>
  <path fill="#097CB5" d="M7 0h16v1H7Z"/>
  <path fill="#0C7CB5" d="M23 0h1v1H23Z"/>
  <path fill="#CEECFF" d="M2 1h1v1H2Zm25 0h1v1h-1Z"/>
  <path fill="#CCEBFD" d="M3 1h1v1H3Zm23 0h1v1h-1Z"/>
  <path fill="#CDEBFD" d="M4 1h1v1H4Zm21 0h1v1h-1Z"/>
  <path fill="#C6E8FC" d="M5 1h1v1H5Zm19 0h1v1h-1Z"/>
  <path fill="#FFF" d="M6 1h18v1H6Zm0 1h1v4h-1Zm17 0h1v4h-1Zm-16 12h16v1h-16Zm15 5h1v1h-1Zm-9 2h17v1h-17Zm0 1h1v7h-1Zm16 0h1v7h-1Zm-15 3h1v2h-1Zm2 0h1v2h-1Zm1 1h12v3h-12Zm-3 2h3v1h-3Z"/>
  <path fill-opacity=".067" d="M0 2h1v1H0Zm29 0h1v1h-1Zm2 19h1v1h-1Zm-31 6h1v1h-1Zm2 2h1v1h-1Zm7 0h1v1h-1Zm2 1h1v1h-1Zm20 0h1v1h-1Zm-19 1h1v1h-1Zm18 0h1v1h-1Z"/>
  <path fill="#D5EDFD" d="M2 2h1v1H2Zm25 0h1v1h-1Z"/>
  <path fill="#0389D9" d="M3 2h1v1H3Zm23 0h1v1h-1Z"/>
  <path fill="#088CDC" d="M4 2h1v1H4Zm21 0h1v1h-1Z"/>
  <path fill="#0085D8" d="M5 2h1v1H5Zm19 0h1v1h-1Z"/>
  <path fill="#DFE7F1" d="M7 2h1v1H7Zm15 0h1v1h-1Z"/>
  <path fill="#DEE7F1" d="M8 2h14v1H8Z"/>
  <path fill-opacity=".086" d="M0 3h1v24H0Zm29 0h1v17h-1Zm2 19h1v8h-1Zm-28 7h6v1h-6Zm8 0h1v1h-1Zm2 2h17v1h-17Z"/>
  <path fill="#D0ECFC" d="M2 3h1v1H2Zm25 0h1v1h-1Z"/>
  <path fill="#1091DF" d="M3 3h1v1H3Zm23 0h1v1h-1Z"/>
  <path fill="#064064" d="M4 3h1v1H4Z"/>
  <path fill="#078DDD" d="M5 3h1v1H5Zm19 0h1v1h-1Z"/>
  <path fill="#E0E8F2" d="M7 3h1v1H7Z"/>
  <path fill="#DFE9F4" d="M8 3h1v1H8Z"/>
  <path fill="#DFEAF4" d="M9 3h1v1H9Z"/>
  <path fill="#DFE9F3" d="M10 3h1v1H10Zm5 0h2v1h-2Zm4 0h2v1h-2Z"/>
  <path fill="#DEE9F3" d="M11 3h2v1H11Zm6 0h2v1h-2Z"/>
  <path fill="#DEE8F3" d="M13 3h2v1H13Zm8 0h1v1h-1Z"/>
  <path fill="#DFE8F2" d="M22 3h1v1H22Z"/>
  <path fill="#063F64" d="M25 3h1v1H25Z"/>
  <path fill="#CCEAFB" d="M2 4h1v1H2Zm25 0h1v1h-1Z"/>
  <path fill="#1795E1" d="M3 4h1v1H3Zm23 0h1v1h-1Z"/>
  <path fill="#0B486D" d="M4 4h1v1H4Z"/>
  <path fill="#0D91E0" d="M5 4h1v1H5Zm19 0h1v1h-1Z"/>
  <path fill="#E5ECF6" d="M7 4h1v1H7Z"/>
  <path fill="#E8F1FB" d="M8 4h1v1H8Zm10 2h1v1h-1Zm3 1h1v1h-1Z"/>
  <path fill="#E9F2FD" d="M9 4h1v1H9Zm4 3h2v1h-2Z"/>
  <path fill="#E7F0FB" d="M10 4h1v1H10Z"/>
  <path fill="#E6EFF9" d="M11 4h1v1H11Z"/>
  <path fill="#E5EEF9" d="M12 4h1v1H12Z"/>
  <path fill="#E5EEF8" d="M13 4h2v1H13Zm4 0h2v1h-2Z"/>
  <path fill="#E7F0FA" d="M15 4h1v1H15Zm4 0h1v1h-1Zm2 2h1v1h-1Z"/>
  <path fill="#E6EFFA" d="M16 4h1v1H16Zm4 0h1v1h-1Z"/>
  <path fill="#E4EDF8" d="M21 4h1v1H21Z"/>
  <path fill="#E3EBF4" d="M22 4h1v1H22Z"/>
  <path fill="#0A476C" d="M25 4h1v1H25Z"/>
  <path fill="#1280B6" d="M1 5h1v1H1Zm27 0h1v1h-1Z"/>
  <path fill="#C5E5FA" d="M2 5h1v1H2Zm25 0h1v1h-1Z"/>
  <path fill="#1B96E0" d="M3 5h1v1H3Zm23 0h1v1h-1Z"/>
  <path fill="#14689A" d="M4 5h1v1H4Z"/>
  <path fill="#1292DF" d="M5 5h1v1H5Zm19 0h1v1h-1Z"/>
  <path fill="#E9F0FA" d="M7 5h1v1H7Z"/>
  <path fill="#414447" d="M8 5h1v1H8Z"/>
  <path fill="#43474A" d="M9 5h1v1H9Z"/>
  <path fill="#9AA1A7" d="M10 5h1v1H10Z"/>
  <path fill="#989EA5" d="M11 5h1v1H11Z"/>
  <path fill="#979DA4" d="M12 5h1v1H12Z"/>
  <path fill="#959CA2" d="M13 5h1v1H13Z"/>
  <path fill="#E9F3FD" d="M14 5h1v1H14Zm4 0h1v1h-1Zm-2 1h1v1h-1Zm-4 1h1v1h-1Zm3 0h1v1h-1Z"/>
  <path fill="#3F4345" d="M15 5h1v1H15Zm4 0h1v1h-1Z"/>
  <path fill="#99A0A6" d="M16 5h1v1H16Zm4 0h1v1h-1Z"/>
  <path fill="#969CA2" d="M17 5h1v1H17Z"/>
  <path fill="#949BA1" d="M21 5h1v1H21Z"/>
  <path fill="#E6EDF7" d="M22 5h1v1H22Z"/>
  <path fill="#146799" d="M25 5h1v1H25Z"/>
  <path fill="#1380B6" d="M1 6h1v2H1Zm27 0h1v2h-1Z"/>
  <path fill="#C0E2F9" d="M2 6h1v1H2Zm25 0h1v1h-1Z"/>
  <path fill="#2096DD" d="M3 6h1v1H3Zm23 0h1v1h-1Z"/>
  <path fill="#259ADF" d="M4 6h1v1H4Zm21 0h1v1h-1Z"/>
  <path fill="#1692DB" d="M5 6h1v1H5Zm19 0h1v1h-1Z"/>
  <path fill="#FFFFFD" d="M6 6h1v1H6Zm17 0h1v1h-1Zm-1 12h1v1h-1Z"/>
  <path fill="#E8F0F9" d="M7 6h1v1H7Z"/>
  <path fill="#EBF4FF" d="M8 6h1v1H8Zm12 1h1v1h-1Z"/>
  <path fill="#EDF6FF" d="M9 6h1v1H9Z"/>
  <path fill="#EAF4FE" d="M10 6h1v1H10Zm9 0h1v1h-1Z"/>
  <path fill="#E9F2FC" d="M11 6h1v1H11Z"/>
  <path fill="#E8F1FC" d="M12 6h1v1H12Z"/>
  <path fill="#E7F1FB" d="M13 6h2v1H13Zm4 0h1v1h-1Z"/>
  <path fill="#EAF3FD" d="M15 6h1v1H15Zm5 0h1v1h-1Z"/>
  <path fill="#E5EDF7" d="M22 6h1v1H22Z"/>
  <path fill="#BBE0F8" d="M2 7h1v1H2Zm25 0h1v1h-1Z"/>
  <path fill="#2497DD" d="M3 7h1v1H3Zm23 0h1v1h-1Z"/>
  <path fill="#299ADE" d="M4 7h1v1H4Zm21 0h1v1h-1Zm-22 1h1v1h-1Zm23 0h1v1h-1Z"/>
  <path fill="#1A93DB" d="M5 7h1v1H5Zm19 0h1v1h-1Z"/>
  <path fill="#FFFEFD" d="M6 7h1v2H6Zm4 10h4v1h-4Z"/>
  <path fill="#E9F1FA" d="M7 7h1v1H7Z"/>
  <path fill="#ECF6FF" d="M8 7h1v1H8Z"/>
  <path fill="#EEF7FF" d="M9 7h1v1H9Zm10 0h1v1h-1Z"/>
  <path fill="#EBF5FF" d="M10 7h1v1H10Z"/>
  <path fill="#EAF3FE" d="M11 7h1v1H11Z"/>
  <path fill="#E8F2FC" d="M16 7h2v1H16Z"/>
  <path fill="#ECF5FF" d="M18 7h1v1H18Z"/>
  <path fill="#E7EFF8" d="M22 7h1v1H22Z"/>
  <path fill="#FFFDFC" d="M23 7h1v2H23Z"/>
  <path fill="#1480B6" d="M1 8h1v3H1Zm27 0h1v3h-1Z"/>
  <path fill="#B4DDF8" d="M2 8h1v1H2Zm25 0h1v1h-1Z"/>
  <path fill="#2D9CDE" d="M4 8h1v1H4Zm21 0h1v1h-1Z"/>
  <path fill="#1E95DC" d="M5 8h1v1H5Zm19 0h1v1h-1Z"/>
  <path fill="#EDF3FC" d="M7 8h1v1H7Zm0 2h1v1h-1Zm8 3h1v1h-1Z"/>
  <path fill="#424447" d="M8 8h1v1H8Z"/>
  <path fill="#454749" d="M9 8h1v1H9Zm10 0h1v1h-1Z"/>
  <path fill="#9DA2A8" d="M10 8h1v1H10Z"/>
  <path fill="#9A9FA5" d="M11 8h1v1H11Z"/>
  <path fill="#9A9EA5" d="M12 8h3v1H12Z"/>
  <path fill="#9A9EA4" d="M15 8h1v1H15Z"/>
  <path fill="#989CA3" d="M16 8h1v1H16Z"/>
  <path fill="#EEF5FF" d="M17 8h1v1H17Zm-7 1h1v1h-1Zm10 0h1v1h-1Zm-4 3h1v1h-1Z"/>
  <path fill="#434447" d="M18 8h1v1H18Z"/>
  <path fill="#9DA1A8" d="M20 8h1v1H20Zm-1 3h1v1h-1Z"/>
  <path fill="#979CA2" d="M21 8h1v1H21Z"/>
  <path fill="#EAEFF9" d="M22 8h1v1H22Z"/>
  <path fill="#B1DCF6" d="M2 9h1v1H2Zm25 0h1v1h-1Z"/>
  <path fill="#2D9CDF" d="M3 9h1v1H3Zm23 0h1v1h-1Z"/>
  <path fill="#309EDF" d="M4 9h1v1H4Zm21 0h1v1h-1Zm-20 3h1v1h-1Zm19 0h1v1h-1Z"/>
  <path fill="#2297DD" d="M5 9h1v1H5Zm19 0h1v1h-1Z"/>
  <path fill="#FFFCFC" d="M6 9h1v1H6Z"/>
  <path fill="#ECF2FB" d="M7 9h1v1H7Z"/>
  <path fill="#EFF6FF" d="M8 9h1v2H8Zm1 1h1v1h-1Zm5 0h1v1h-1Zm3 0h1v1h-1Zm2 0h1v1h-1Z"/>
  <path fill="#F1F8FF" d="M9 9h1v1H9Z"/>
  <path fill="#EDF4FE" d="M11 9h1v2H11Zm3 0h1v1h-1Zm-4 1h1v1h-1Zm5 0h1v1h-1Z"/>
  <path fill="#EDF4FF" d="M12 9h1v1H12Z"/>
  <path fill="#EDF5FF" d="M13 9h1v1H13Zm7 1h1v1h-1Z"/>
  <path fill="#ECF3FD" d="M15 9h1v1H15Zm2 0h1v1h-1Zm4 1h1v1h-1Z"/>
  <path fill="#EBF2FD" d="M16 9h1v1H16Z"/>
  <path fill="#EFF7FF" d="M18 9h1v2H18Z"/>
  <path fill="#F0F8FF" d="M19 9h1v1H19Z"/>
  <path fill="#EBF2FC" d="M21 9h1v1H21Z"/>
  <path fill="#EAF0F9" d="M22 9h1v1H22Z"/>
  <path fill="#FFFBFC" d="M23 9h1v1H23Z"/>
  <path fill="#ABD9F6" d="M2 10h1v1H2Zm25 0h1v1h-1Z"/>
  <path fill="#319FDF" d="M3 10h1v1H3Zm23 0h1v1h-1Z"/>
  <path fill="#34A0DF" d="M4 10h1v1H4Zm21 0h1v1h-1Z"/>
  <path fill="#269ADD" d="M5 10h1v1H5Zm19 0h1v1h-1Z"/>
  <path fill="#FFFAFC" d="M6 10h1v1H6Zm17 0h1v1h-1Z"/>
  <path fill="#F0F7FF" d="M12 10h1v1H12Zm-4 2h1v1h-1Zm10 0h1v1h-1Z"/>
  <path fill="#F1F9FF" d="M13 10h1v1H13Z"/>
  <path fill="#ECF3FE" d="M16 10h1v1H16Z"/>
  <path fill="#EBF1FA" d="M22 10h1v1H22Z"/>
  <path fill="#1481B6" d="M1 11h1v1H1Zm27 0h1v1h-1Z"/>
  <path fill="#A6D6F5" d="M2 11h1v1H2Zm25 0h1v1h-1Z"/>
  <path fill="#36A1E1" d="M3 11h1v1H3Zm23 0h1v1h-1Z"/>
  <path fill="#39A2E0" d="M4 11h1v1H4Zm21 0h1v1h-1Z"/>
  <path fill="#2B9CDE" d="M5 11h1v1H5Zm19 0h1v1h-1Z"/>
  <path fill="#FFFBFE" d="M6 11h1v1H6Z"/>
  <path fill="#F1F6FF" d="M7 11h1v1H7Z"/>
  <path fill="#414245" d="M8 11h1v1H8Z"/>
  <path fill="#9FA2AA" d="M9 11h1v1H9Z"/>
  <path fill="#9B9FA6" d="M10 11h1v1H10Zm5 0h1v1h-1Z"/>
  <path fill="#F2F8FF" d="M11 11h1v1H11Zm5 0h1v1h-1Zm-4 1h1v1h-1Z"/>
  <path fill="#444549" d="M12 11h1v1H12Z"/>
  <path fill="#46474B" d="M13 11h1v1H13Z"/>
  <path fill="#9FA3AB" d="M14 11h1v1H14Z"/>
  <path fill="#424246" d="M17 11h1v1H17Z"/>
  <path fill="#9FA3AA" d="M18 11h1v1H18Z"/>
  <path fill="#9CA0A7" d="M20 11h1v1H20Z"/>
  <path fill="#9A9DA5" d="M21 11h1v1H21Z"/>
  <path fill="#EFF3FC" d="M22 11h1v1H22Z"/>
  <path fill="#FFFBFD" d="M23 11h1v1H23Z"/>
  <path fill="#1581B6" d="M1 12h1v6H1Zm27 0h1v6h-1Z"/>
  <path fill="#A2D5F5" d="M2 12h1v1H2Zm25 0h1v1h-1Z"/>
  <path fill="#3BA3E2" d="M3 12h1v1H3Zm23 0h1v1h-1Z"/>
  <path fill="#3DA4E1" d="M4 12h1v1H4Zm21 0h1v1h-1Z"/>
  <path fill="#FFFAFE" d="M6 12h1v1H6Z"/>
  <path fill="#F0F4FD" d="M7 12h1v1H7Z"/>
  <path fill="#F0F6FF" d="M9 12h1v1H9Zm10 0h1v1h-1Z"/>
  <path fill="#EFF5FF" d="M10 12h2v1H10Zm5 0h1v1h-1Zm5 0h1v1h-1Z"/>
  <path fill="#F3F9FF" d="M13 12h1v1H13Z"/>
  <path fill="#F1F7FF" d="M14 12h1v1H14Zm3 0h1v1h-1Z"/>
  <path fill="#EEF4FE" d="M21 12h1v1H21Z"/>
  <path fill="#EEF3FC" d="M22 12h1v1H22Zm-2 1h2v1h-2Z"/>
  <path fill="#FFF9FE" d="M23 12h1v1H23Z"/>
  <path fill="#9FD4F3" d="M2 13h1v1H2Zm25 0h1v1h-1Z"/>
  <path fill="#3FA6E3" d="M3 13h1v1H3Zm23 0h1v1h-1Z"/>
  <path fill="#42A6E3" d="M4 13h1v1H4Zm21 0h1v1h-1Z"/>
  <path fill="#35A1E1" d="M5 13h1v1H5Zm19 0h1v1h-1Z"/>
  <path fill="#FFFCFE" d="M6 13h1v1H6Zm17 0h1v1h-1Z"/>
  <path fill="#F1F4FD" d="M7 13h1v1H7Z"/>
  <path fill="#EEF3FD" d="M8 13h2v1H8Zm4 0h3v1h-3Zm5 0h3v1h-3Z"/>
  <path fill="#EDF2FC" d="M10 13h2v1H10Zm6 0h1v1h-1Z"/>
  <path fill="#F1F4FC" d="M22 13h1v1H22Z"/>
  <path fill="#9BD1F3" d="M2 14h1v1H2Zm25 0h1v1h-1Z"/>
  <path fill="#44A7E3" d="M3 14h1v1H3Zm23 0h1v1h-1Z"/>
  <path fill="#47A8E3" d="M4 14h1v1H4Zm21 0h1v1h-1Z"/>
  <path fill="#3FA4E1" d="M5 14h1v1H5Zm19 0h1v1h-1Z"/>
  <path fill="#B9DAF4" d="M6 14h1v1H6Zm17 0h1v1h-1Z"/>
  <path fill="#98D1F3" d="M2 15h1v1H2Zm25 0h1v1h-1Z"/>
  <path fill="#48A9E4" d="M3 15h1v1H3Zm23 0h1v1h-1Z"/>
  <path fill="#4BAAE4" d="M4 15h1v1H4Zm21 0h1v1h-1Z"/>
  <path fill="#4AA9E3" d="M5 15h1v1H5Zm19 0h1v1h-1Z"/>
  <path fill="#42A6E2" d="M6 15h1v1H6Zm17 0h1v1h-1Z"/>
  <path fill="#3CA3E1" d="M7 15h1v1H7Zm15 0h1v1h-1Z"/>
  <path fill="#39A2E1" d="M8 15h1v1H8Zm13 0h1v1h-1Z"/>
  <path fill="#38A2E1" d="M9 15h12v1H9Z"/>
  <path fill="#95CFF3" d="M2 16h1v1H2Zm25 0h1v1h-1Z"/>
  <path fill="#4DABE5" d="M3 16h1v1H3Zm3 0h1v1h-1Zm17 0h1v1h-1Zm3 0h1v1h-1Z"/>
  <path fill="#50ADE5" d="M4 16h2v1H4Zm20 0h2v1h-2Z"/>
  <path fill="#46A8E4" d="M7 16h1v1H7Zm15 0h1v1h-1Z"/>
  <path fill="#41A6E3" d="M8 16h1v1H8Zm13 0h1v1h-1Z"/>
  <path fill="#3FA5E3" d="M9 16h1v1H9Zm4 0h8v1h-8Z"/>
  <path fill="#3EA5E3" d="M10 16h3v1H10Z"/>
  <path fill="#92CEF3" d="M2 17h1v1H2Zm25 0h1v1h-1Z"/>
  <path fill="#52AEE6" d="M3 17h1v1H3Zm23 0h1v1h-1Z"/>
  <path fill="#54AFE6" d="M4 17h2v1H4Zm20 0h2v1h-2Z"/>
  <path fill="#4DACE5" d="M6 17h1v1H6Zm17 0h1v1h-1Z"/>
  <path fill="#A5CBE6" d="M7 17h1v1H7Zm15 0h1v1h-1Z"/>
  <path fill="#FFFFFC" d="M8 17h2v1H8Zm-1 1h1v1h-1Z"/>
  <path fill="#FFFCFB" d="M14 17h1v1H14Z"/>
  <path fill="#FFFBFA" d="M15 17h5v1H15Zm-8 2h1v1h-1Z"/>
  <path fill="#FFFCFA" d="M20 17h1v1H20Z"/>
  <path fill="#FFFDFB" d="M21 17h1v1H21Z"/>
  <path fill="#1681B6" d="M1 18h1v8H1Zm2 9h2v1h-2Z"/>
  <path fill="#8FCCF3" d="M2 18h1v1H2Z"/>
  <path fill="#56B0E7" d="M3 18h1v1H3Z"/>
  <path fill="#58B1E7" d="M4 18h1v1H4Z"/>
  <path fill="#57B0E7" d="M5 18h1v1H5Z"/>
  <path fill="#4CABE6" d="M6 18h1v1H6Z"/>
  <path fill="#CFDAE7" d="M8 18h1v1H8Z"/>
  <path fill="#CFDCE9" d="M9 18h1v1H9Z"/>
  <path fill="#D4E1EF" d="M10 18h1v1H10Z"/>
  <path fill="#D8E5F3" d="M11 18h1v1H11Z"/>
  <path fill="#D8E5F2" d="M12 18h1v1H12Z"/>
  <path fill="#D5E1EE" d="M13 18h1v1H13Z"/>
  <path fill="#D2DDEA" d="M14 18h1v1H14Z"/>
  <path fill="#D1DCE9" d="M15 18h6v1H15Z"/>
  <path fill="#D3DCE8" d="M21 18h1v1H21Z"/>
  <path fill="#4EACE7" d="M23 18h1v1H23Z"/>
  <path fill="#58B1E8" d="M24 18h1v1H24Z"/>
  <path fill="#59B1E8" d="M25 18h1v1H25Z"/>
  <path fill="#57B1E8" d="M26 18h1v1H26Z"/>
  <path fill="#90CDF4" d="M27 18h1v1H27Z"/>
  <path fill="#1582B6" d="M28 18h1v1H28Z"/>
  <path fill="#8ECBF3" d="M2 19h1v1H2Z"/>
  <path fill="#5BB2E7" d="M3 19h1v1H3Zm2 0h1v1h-1Z"/>
  <path fill="#5DB3E7" d="M4 19h1v1H4Z"/>
  <path fill="#4FADE5" d="M6 19h1v1H6Z"/>
  <path fill="#D1DDE9" d="M8 19h1v1H8Z"/>
  <path fill="#EEF4FC" d="M9 19h1v1H9Z"/>
  <path fill="#929CA5" d="M10 19h1v1H10Z"/>
  <path fill="#4E4A48" d="M11 19h1v1H11Z"/>
  <path fill="#59514E" d="M12 19h1v1H12Z"/>
  <path fill="#9B9DA4" d="M13 19h1v1H13Z"/>
  <path fill="#FBFAFE" d="M14 19h1v1H14Z"/>
  <path fill="#E0E6EF" d="M15 19h5v1H15Z"/>
  <path fill="#E0E6EE" d="M20 19h1v1H20Z"/>
  <path fill="#E0E5EE" d="M21 19h1v1H21Z"/>
  <path fill="#55B2EA" d="M23 19h1v1H23Z"/>
  <path fill="#5EB6EB" d="M24 19h1v1H24Zm2 0h1v1h-1Z"/>
  <path fill="#5FB6EB" d="M25 19h1v1H25Z"/>
  <path fill="#90CEF6" d="M27 19h1v1H27Z"/>
  <path fill="#1382B8" d="M28 19h1v1H28Z"/>
  <path fill="#8BCBF2" d="M2 20h1v1H2Z"/>
  <path fill="#5EB5E8" d="M3 20h1v1H3Z"/>
  <path fill="#5FB5E8" d="M4 20h1v1H4Z"/>
  <path fill="#5EB4E8" d="M5 20h1v1H5Z"/>
  <path fill="#52AFE7" d="M6 20h1v1H6Z"/>
  <path fill="#FAF8F7" d="M7 20h1v1H7Z"/>
  <path fill="#D4E0EB" d="M8 20h1v1H8Z"/>
  <path fill="#FDFFFF" d="M9 20h1v1H9Z"/>
  <path fill="#474444" d="M10 20h1v1H10Z"/>
  <path fill="#637E92" d="M11 20h1v1H11Z"/>
  <path fill="#1579B7" d="M12 20h1v1H12Z"/>
  <path fill="#0B70AD" d="M13 20h1v1H13Zm-1 5h1v1h-1Z"/>
  <path fill="#046AA7" d="M14 20h1v1H14Z"/>
  <path fill="#0368A6" d="M15 20h2v1H15Z"/>
  <path fill="#0267A5" d="M17 20h1v1H17Z"/>
  <path fill="#0167A5" d="M18 20h2v1H18Z"/>
  <path fill="#0167A4" d="M20 20h1v1H20Z"/>
  <path fill="#0166A4" d="M21 20h1v1H21Z"/>
  <path fill="#0367A4" d="M22 20h1v1H22Z"/>
  <path fill="#0969A4" d="M23 20h1v1H23Z"/>
  <path fill="#0D6BA5" d="M24 20h3v1H24Z"/>
  <path fill="#0E6CA6" d="M27 20h1v1H27Z"/>
  <path fill="#126FA9" d="M28 20h1v1H28Z"/>
  <path fill="#1974AC" d="M29 20h1v1H29Zm1 1h1v1h-1Zm0 7h1v1h-1Zm-1 1h1v1h-1Z"/>
  <path fill="#237AB0" d="M30 20h1v1H30Zm0 9h1v1h-1Z"/>
  <path fill="#8ACBF1" d="M2 21h1v1H2Z"/>
  <path fill="#63B7E9" d="M3 21h1v1H3Z"/>
  <path fill="#64B7E9" d="M4 21h1v1H4Z"/>
  <path fill="#62B6E9" d="M5 21h1v1H5Z"/>
  <path fill="#56B1E8" d="M6 21h1v1H6Z"/>
  <path fill="#F7F6F6" d="M7 21h1v1H7Z"/>
  <path fill="#D6E2ED" d="M8 21h1v1H8Z"/>
  <path fill="#FAFFFF" d="M9 21h1v1H9Z"/>
  <path fill="#4E4B4A" d="M10 21h1v1H10Z"/>
  <path fill="#688192" d="M11 21h1v1H11Z"/>
  <path fill="#1275B1" d="M12 21h1v1H12Z"/>
  <path fill="#88C9F3" d="M2 22h1v1H2Z"/>
  <path fill="#67B9EB" d="M3 22h1v1H3Z"/>
  <path fill="#68B9EA" d="M4 22h1v1H4Z"/>
  <path fill="#66B8EA" d="M5 22h1v1H5Z"/>
  <path fill="#5BB4E9" d="M6 22h1v1H6Z"/>
  <path fill="#F6F4F5" d="M7 22h1v1H7Z"/>
  <path fill="#DAE5ED" d="M8 22h1v1H8Z"/>
  <path fill="#F8FFFF" d="M9 22h1v1H9Z"/>
  <path fill="#514F4E" d="M10 22h1v1H10Z"/>
  <path fill="#6A8392" d="M11 22h1v1H11Z"/>
  <path fill="#0E72AF" d="M12 22h1v1H12Z"/>
  <path fill="#545250" d="M14 22h1v1H14Z"/>
  <path fill="#595857" d="M15 22h1v1H15Z"/>
  <path fill="#535251" d="M16 22h1v1H16Z"/>
  <path fill="#E1E0E2" d="M17 22h1v1H17Z"/>
  <path fill="#DCDBDD" d="M18 22h1v1H18Z"/>
  <path fill="#DADADC" d="M19 22h9v1H19Z"/>
  <path fill="#DCDADB" d="M28 22h1v1H28Z"/>
  <path fill="#1471AB" d="M30 22h1v1H30Z"/>
  <path fill="#86C9F1" d="M2 23h1v1H2Z"/>
  <path fill="#6CBBEA" d="M3 23h2v1H3Z"/>
  <path fill="#6ABAEA" d="M5 23h1v1H5Z"/>
  <path fill="#5FB6E9" d="M6 23h1v1H6Z"/>
  <path fill="#F3F3F5" d="M7 23h1v1H7Z"/>
  <path fill="#DDE8EE" d="M8 23h1v1H8Z"/>
  <path fill="#F6FDFF" d="M9 23h1v1H9Z"/>
  <path fill="#545252" d="M10 23h1v1H10Z"/>
  <path fill="#6B8494" d="M11 23h1v1H11Z"/>
  <path fill="#0D71AE" d="M12 23h1v1H12Z"/>
  <path fill="#F6F5F6" d="M14 23h1v1H14Z"/>
  <path fill="#575757" d="M15 23h1v1H15Z"/>
  <path fill="#F4F5F7" d="M16 23h1v1H16Z"/>
  <path fill="#E9EAEB" d="M17 23h1v1H17Z"/>
  <path fill="#E6E7E8" d="M18 23h1v1H18Z"/>
  <path fill="#E5E6E7" d="M19 23h9v1H19Z"/>
  <path fill="#E6E6E6" d="M28 23h1v1H28Z"/>
  <path fill="#1371AA" d="M30 23h1v2H30Zm-13 6h1v1h-1Zm11 0h1v1h-1Z"/>
  <path fill="#85C9F1" d="M2 24h1v1H2Z"/>
  <path fill="#70BDEC" d="M3 24h1v1H3Z"/>
  <path fill="#70BDEB" d="M4 24h1v1H4Z"/>
  <path fill="#6EBCEB" d="M5 24h1v1H5Z"/>
  <path fill="#64B8EA" d="M6 24h1v1H6Z"/>
  <path fill="#F1F2F2" d="M7 24h1v1H7Z"/>
  <path fill="#DFEAF0" d="M8 24h1v1H8Z"/>
  <path fill="#F3FBFF" d="M9 24h1v1H9Z"/>
  <path fill="#585554" d="M10 24h1v1H10Z"/>
  <path fill="#6D8695" d="M11 24h1v1H11Z"/>
  <path fill="#0C70AE" d="M12 24h1v1H12Zm0 2h1v1h-1Z"/>
  <path fill="#FEFEFD" d="M14 24h1v1H14Z"/>
  <path fill="#535353" d="M15 24h1v1H15Z"/>
  <path fill="#FDFEFE" d="M16 24h1v1H16Z"/>
  <path fill="#F3F4F4" d="M17 24h1v1H17Z"/>
  <path fill="#F0F1F1" d="M18 24h10v1H18Z"/>
  <path fill="#F2F2F1" d="M28 24h1v1H28Z"/>
  <path fill="#85C9F3" d="M2 25h1v1H2Z"/>
  <path fill="#76C1EE" d="M3 25h1v1H3Z"/>
  <path fill="#76C0ED" d="M4 25h1v1H4Z"/>
  <path fill="#74BFED" d="M5 25h1v1H5Z"/>
  <path fill="#69BBEC" d="M6 25h1v1H6Z"/>
  <path fill="#F0F3F2" d="M7 25h1v1H7Z"/>
  <path fill="#E2EDF1" d="M8 25h1v1H8Z"/>
  <path fill="#F2FBFF" d="M9 25h1v1H9Z"/>
  <path fill="#5A5858" d="M10 25h1v1H10Z"/>
  <path fill="#6F8896" d="M11 25h1v1H11Z"/>
  <path fill="#525252" d="M15 25h1v1H15Z"/>
  <path fill="#FDFFFE" d="M17 25h1v1H17Z"/>
  <path fill="#FBFCFC" d="M18 25h10v1H18Z"/>
  <path fill="#FDFDFC" d="M28 25h1v1H28Z"/>
  <path fill="#1370AA" d="M30 25h1v2H30Zm-12 4h10v1h-10Z"/>
  <path fill="#1882B7" d="M1 26h1v1H1Zm1 1h1v1h-1Z"/>
  <path fill="#8BCDF6" d="M2 26h1v1H2Z"/>
  <path fill="#83C8F3" d="M3 26h1v1H3Z"/>
  <path fill="#82C7F2" d="M4 26h1v1H4Z"/>
  <path fill="#80C6F2" d="M5 26h1v1H5Z"/>
  <path fill="#75C2F1" d="M6 26h1v1H6Z"/>
  <path fill="#F4F6F4" d="M7 26h1v1H7Z"/>
  <path fill="#E9F2F5" d="M8 26h1v1H8Z"/>
  <path fill="#F3FDFF" d="M9 26h1v1H9Z"/>
  <path fill="#5F5C5C" d="M10 26h1v1H10Z"/>
  <path fill="#728B99" d="M11 26h1v1H11Z"/>
  <path fill="#555" d="M15 26h1v1H15Z"/>
  <path fill-opacity=".216" d="M1 27h1v1H1Zm1 1h1v1h-1Zm7 0h1v1h-1Z"/>
  <path fill="#1380B5" d="M5 27h1v1H5Z"/>
  <path fill="#067AB3" d="M6 27h1v1H6Z"/>
  <path fill="#CFCFD7" d="M7 27h1v1H7Z"/>
  <path fill="#C4CBD7" d="M8 27h1v1H8Z"/>
  <path fill="#CAD3DF" d="M9 27h1v1H9Z"/>
  <path fill-opacity=".282" d="M10 27h2v1H10Z"/>
  <path fill="#0F71AE" d="M12 27h1v1H12Z"/>
  <path fill="#53504E" d="M14 27h1v1H14Z"/>
  <path fill="#585656" d="M15 27h1v1H15Z"/>
  <path fill="#504E4E" d="M16 27h1v1H16Z"/>
  <path fill="#1471AA" d="M30 27h1v1H30Z"/>
  <path fill-opacity=".11" d="M1 28h1v1H1Z"/>
  <path fill-opacity=".263" d="M3 28h6v1H3Zm10 2h17v1h-17Z"/>
  <path fill-opacity=".133" d="M10 28h1v1H10Z"/>
  <path fill-opacity=".153" d="M11 28h1v1H11Z"/>
  <path fill="#1775AE" d="M12 28h1v1H12Z"/>
  <path fill="#227AB0" d="M12 29h1v1H12Z"/>
  <path fill="#1975AD" d="M13 29h1v1H13Z"/>
  <path fill="#1573AC" d="M14 29h1v1H14Z"/>
  <path fill="#1473AC" d="M15 29h1v1H15Z"/>
  <path fill="#1472AC" d="M16 29h1v1H16Z"/>
  <path fill-opacity=".196" d="M12 30h1v1H12Zm18 0h1v1h-1Z"/>
</svg>
